<?xml version="1.0" encoding="utf-8"?>
<!-- Generator: Adobe Illustrator 15.0.0, SVG Export Plug-In . SVG Version: 6.00 Build 0)  -->
<!DOCTYPE svg PUBLIC "-//W3C//DTD SVG 1.1//EN" "http://www.w3.org/Graphics/SVG/1.1/DTD/svg11.dtd">
<svg version="1.1" id="Layer_1" xmlns="http://www.w3.org/2000/svg" xmlns:xlink="http://www.w3.org/1999/xlink" x="0px" y="0px"
	 width="888.697px" height="181.197px" viewBox="0 0 888.697 181.197" enable-background="new 0 0 888.697 181.197"
	 xml:space="preserve">
<g>
	<path fill="#345468" d="M167.39,106.7c1.328-14.971,2.49-32.412,3.485-52.326c0.996-19.913,1.494-34.907,1.494-44.983
		c5.515,0.096,10.673,0.143,15.476,0.143c4.707,0,9.319-0.047,13.835-0.143c-1.038,7.414-1.793,15.565-2.266,24.452
		c4.323-0.713,7.649-1.188,9.977-1.426c2.328-0.237,4.633-0.356,6.914-0.356c7.316,0,13.576,1.153,18.779,3.458
		c5.202,2.306,9.43,6.191,12.685,11.656c3.255,5.466,4.882,12.144,4.882,20.032c0,7.89-1.545,15.149-4.634,21.779
		s-7.223,11.549-12.402,14.757c-5.18,3.208-11.215,4.812-18.105,4.812c-2.566,0-5.015-0.262-7.343-0.784
		c-2.328-0.523-4.443-1.294-6.344-2.317c-1.901-1.021-3.493-2.103-4.776-3.244s-2.755-2.685-4.418-4.634l-0.256,9.125
		c-5.093-0.095-9.351-0.143-12.777-0.143C178.787,106.557,174.052,106.605,167.39,106.7z M197.409,53.875
		c-0.343,7.89-0.514,12.714-0.514,14.472c0,4.468,0.392,8.009,1.176,10.622c0.784,2.614,2.282,4.705,4.492,6.273
		s4.694,2.353,7.452,2.353c2.852,0,5.348-0.784,7.487-2.353c2.139-1.568,3.768-3.861,4.885-6.879
		c1.117-3.018,1.676-6.19,1.676-9.517c0-4.99-1.347-8.994-4.038-12.012c-2.692-3.018-6.563-4.527-11.612-4.527
		C205.27,52.306,201.602,52.83,197.409,53.875z"/>
	<path fill="#345468" d="M263.131,106.7l2.207-31.652l0.712-18.179c0.047-3.279,0.071-6.63,0.071-10.052
		c0-3.469-0.048-7.771-0.143-12.903c5.751,0.096,10.314,0.143,13.689,0.143c3.946,0,8.485-0.047,13.619-0.143l-0.297,8.056
		c1.854-2.091,3.375-3.647,4.564-4.669c1.189-1.021,2.544-1.948,4.066-2.78c1.521-0.831,3.114-1.449,4.779-1.854
		c1.664-0.403,3.399-0.606,5.206-0.606c1.712,0,3.615,0.238,5.707,0.713c0.047,5.181,0.166,9.458,0.356,12.832l0.499,10.979
		c-2.612-0.76-5.057-1.141-7.336-1.141c-2.85,0-5.308,0.417-7.373,1.248c-2.065,0.832-3.894,2.092-5.485,3.778
		c-1.59,1.688-2.861,3.791-3.811,6.309c-0.95,2.52-1.615,6.512-1.995,11.977c-0.38,5.466-0.569,11.716-0.569,18.749
		c0,2.472,0.095,5.537,0.285,9.196c-4.614-0.095-9.252-0.143-13.913-0.143C273.356,106.557,268.411,106.605,263.131,106.7z"/>
	<path fill="#345468" d="M332.638,54.659c0.902-4.705,1.473-7.949,1.711-9.731c0.237-1.782,0.617-4.574,1.141-8.376
		c13.688-2.994,25.452-4.491,35.292-4.491c5.608,0,10.742,0.63,15.4,1.889c4.658,1.26,8.295,3.292,10.909,6.095
		c2.615,2.805,3.923,6.82,3.923,12.048c0,2.662-0.356,8.65-1.067,17.965c-0.711,9.315-1.257,21.529-1.636,36.643
		c-4.66-0.095-9.296-0.143-13.909-0.143c-4.47,0-9.225,0.048-14.266,0.143c0.648-5.228,1.368-16.016,2.157-32.365
		c-1.803,0.855-3.213,1.474-4.231,1.854c-1.021,0.381-2.811,0.951-5.37,1.711c-2.561,0.761-4.564,1.402-6.01,1.925
		c-1.446,0.523-2.702,1.188-3.77,1.996c-1.067,0.809-1.826,1.64-2.276,2.495c-0.45,0.855-0.675,1.807-0.675,2.852
		c0,1.616,0.642,2.994,1.925,4.135s3.326,1.711,6.13,1.711c0.998,0,2.068-0.083,3.209-0.25c1.141-0.166,2.709-0.582,4.705-1.248
		c-1.38,3.66-3.02,9.007-4.92,16.04c-4.088,0.665-7.96,0.998-11.62,0.998c-5.894,0-10.8-0.82-14.721-2.459s-6.939-4.289-9.054-7.949
		c-2.115-3.659-3.172-7.318-3.172-10.979c0-2.233,0.391-4.42,1.175-6.559s2.007-4.229,3.67-6.273c1.662-2.043,3.61-3.79,5.844-5.24
		c2.232-1.449,5.285-2.816,9.157-4.099s8.776-2.495,14.716-3.636c2.471-0.475,4.738-0.986,6.806-1.533
		c2.066-0.546,3.539-1.021,4.418-1.426c0.879-0.403,1.592-0.879,2.138-1.426c0.546-0.546,0.938-1.116,1.176-1.711
		c0.237-0.594,0.356-1.223,0.356-1.889c0-1.806-0.761-3.196-2.28-4.17c-1.521-0.974-3.753-1.461-6.697-1.461
		C354.75,47.744,344.655,50.049,332.638,54.659z"/>
	<path fill="#345468" d="M413.907,106.7c0.662-5.798,1.157-10.574,1.488-14.329c0.331-3.754,0.65-8.555,0.958-14.4
		s0.579-12.309,0.815-19.391c0.236-7.081,0.424-15.303,0.566-24.666c6.183,0.096,11.129,0.143,14.84,0.143
		c3.376,0,8.227-0.047,14.553-0.143c-0.817,8.982-1.405,16.872-1.766,23.668c-0.36,6.797-0.588,13.997-0.684,21.601
		c-0.193,13.498-0.289,22.67-0.289,27.518c-5.65-0.095-10.517-0.143-14.601-0.143C425.753,106.557,420.458,106.605,413.907,106.7z
		 M418.398,24.789c0.285-5.655,0.428-10.123,0.428-13.402c0-0.95-0.024-2.233-0.071-3.85c5.75,0.096,10.574,0.143,14.472,0.143
		c5.37,0,10.075-0.047,14.115-0.143c-0.143,1.474-0.238,2.709-0.285,3.707l-0.428,8.84c-0.096,1.331-0.143,2.899-0.143,4.705
		c-4.705-0.095-9.221-0.143-13.545-0.143C428.473,24.646,423.625,24.694,418.398,24.789z"/>
	<path fill="#345468" d="M459.176,106.7c1.367-10.788,2.416-22.706,3.146-35.751c0.731-13.046,1.166-25.39,1.308-37.035
		c5.71,0.096,10.636,0.143,14.776,0.143c4.805,0,9.421-0.047,13.848-0.143l-0.711,9.695c1.568-1.758,2.923-3.148,4.063-4.17
		c1.141-1.021,2.555-2.02,4.242-2.994c1.687-0.974,3.48-1.77,5.381-2.388c1.9-0.617,3.98-1.105,6.238-1.461
		c2.257-0.356,4.621-0.535,7.093-0.535c3.422,0,6.761,0.369,10.016,1.105c3.254,0.737,5.976,1.782,8.162,3.137
		c2.186,1.354,4.016,3.042,5.489,5.062c1.473,2.021,2.447,4.195,2.923,6.523c0.475,2.329,0.713,4.729,0.713,7.2
		c0,1.807-0.192,5.703-0.577,11.691l-1.228,25.807c-0.24,5.086-0.36,9.791-0.36,14.115c-4.797-0.095-9.283-0.143-13.462-0.143
		c-5.65,0-10.803,0.048-15.455,0.143c0.431-4.324,0.887-10.752,1.365-19.284c0.479-8.53,0.719-14.531,0.719-18
		c0-5.37-1.035-9.113-3.104-11.228c-2.069-2.114-4.675-3.172-7.813-3.172c-2.761,0-5.365,0.903-7.814,2.709
		c-2.45,1.807-4.341,4.432-5.673,7.877c-1.332,3.446-2.272,9.114-2.82,17.002c-0.548,7.89-0.918,15.922-1.108,24.096
		c-4.751-0.095-9.382-0.143-13.894-0.143C469.887,106.557,464.734,106.605,459.176,106.7z"/>
	<path fill="#345468" d="M617.224,49.954c6.511,0.096,12.713,0.143,18.606,0.143c10.075,0,17.965-0.047,23.668-0.143
		c-0.617,6.512-1.245,15.731-1.885,27.66c-0.641,11.93-1.031,20.936-1.174,27.019c-5.467,0.998-9.994,1.723-13.582,2.174
		c-3.589,0.451-7.901,0.855-12.939,1.212s-9.529,0.535-13.474,0.535c-6.466,0-12.811-0.523-19.037-1.568s-11.799-2.732-16.718-5.062
		c-4.919-2.328-9.02-5.489-12.299-9.481s-5.811-8.721-7.592-14.187c-1.783-5.465-2.674-11.121-2.674-16.967
		c0-9.647,2.399-18.606,7.2-26.876c4.8-8.27,11.702-14.816,20.71-19.64c9.005-4.823,20.638-7.236,34.896-7.236
		c10.408,0,21.933,1.26,34.575,3.778c0,6.939,0.309,14.662,0.927,23.169c-3.422-1.141-6.191-2.007-8.306-2.602
		c-2.115-0.594-4.587-1.141-7.414-1.64c-2.828-0.499-5.514-0.867-8.055-1.105c-2.544-0.237-4.813-0.356-6.809-0.356
		c-5.229,0-10.171,0.749-14.828,2.246c-4.658,1.497-8.662,3.803-12.012,6.915c-3.352,3.113-5.858,6.833-7.521,11.157
		c-1.664,4.325-2.495,8.888-2.495,13.688c0,4.896,0.95,9.256,2.852,13.082c1.9,3.826,4.919,6.737,9.054,8.733
		s8.744,2.994,13.83,2.994c4.229,0,8.863-0.617,13.901-1.854l0.813-15.47c-3.097-0.143-4.931-0.214-5.502-0.214l-7.573,0.071
		l0.499-8.769c0.047-0.95,0.118-2.317,0.214-4.099C617.176,55.479,617.224,53.043,617.224,49.954z"/>
	<path fill="#345468" d="M667.126,139.279c-1.473-11.359-2.471-18.417-2.994-21.173c2.996,1.426,5.647,2.399,7.954,2.923
		c2.307,0.522,4.293,0.784,5.957,0.784c1.76,0,3.412-0.238,4.958-0.713c1.546-0.476,2.771-1.058,3.675-1.747
		c0.903-0.689,1.891-1.747,2.961-3.172c1.069-1.426,1.865-2.65,2.39-3.671c0.523-1.022,1.047-2.484,1.57-4.384l-13.415-40.563
		l-11.487-33.648c7.087,0.096,12.058,0.143,14.912,0.143c3.329,0,7.871-0.047,13.628-0.143c0.903,3.66,2.58,9.98,5.03,18.963
		c2.449,8.982,4.222,16.017,5.316,21.102c0.617,2.805,1.212,6.369,1.784,10.693l1.495-5.703c0.475-1.521,1.021-3.255,1.638-5.204
		c0.617-1.948,1.401-4.277,2.352-6.986l4.631-12.975l7.692-19.89c5.936,0.096,10.424,0.143,13.463,0.143
		c2.659,0,7.408-0.047,14.247-0.143l-13.748,31.082l-24.86,57.673c-1.617,3.231-3.162,5.798-4.638,7.699
		c-1.379,1.711-2.877,3.208-4.493,4.491c-1.521,1.188-3.162,2.186-4.922,2.994c-2.379,1.093-4.994,1.948-7.847,2.566
		c-3.139,0.665-6.326,0.998-9.559,0.998c-1.475,0-3.424-0.107-5.849-0.321c-2.426-0.214-4.388-0.428-5.886-0.642
		S669.599,139.849,667.126,139.279z"/>
	<path fill="#345468" d="M759.587,106.7l1.991-34.361l1.139-26.876l0.143-11.549c5.229,0.096,9.84,0.143,13.834,0.143
		c4.516,0,8.913-0.047,13.191-0.143l-0.494,9.481c1.472-1.9,2.72-3.362,3.742-4.384c1.021-1.021,2.27-1.996,3.741-2.923
		c1.473-0.927,2.994-1.663,4.563-2.21c1.568-0.546,3.326-0.986,5.274-1.319c1.948-0.332,3.992-0.499,6.131-0.499
		c2.424,0,4.657,0.203,6.7,0.606c2.043,0.404,3.802,0.916,5.275,1.533c1.473,0.618,2.756,1.331,3.849,2.139
		c1.093,0.809,2.055,1.723,2.887,2.745c0.831,1.022,1.794,2.507,2.888,4.456c2.091-3.041,4.301-5.347,6.63-6.915
		c2.328-1.568,4.978-2.72,7.949-3.458c2.969-0.736,6.023-1.105,9.16-1.105c4.135,0,8.031,0.595,11.691,1.782
		c3.659,1.188,6.666,3.244,9.018,6.167c2.354,2.923,3.529,6.713,3.529,11.371c0,2.187-0.157,5.489-0.469,9.909
		c-0.313,4.42-0.746,12.012-1.299,22.777s-0.854,18.31-0.901,22.634c-4.368-0.095-8.594-0.143-12.675-0.143
		c-4.986,0-10.208,0.048-15.667,0.143c0.479-6.035,0.97-13.604,1.474-22.706c0.504-9.101,0.755-15.41,0.755-18.927
		c0-3.082-0.357-5.381-1.072-6.898s-1.632-2.552-2.751-3.106c-1.12-0.554-2.347-0.831-3.68-0.831c-1.429,0-2.668,0.264-3.716,0.791
		c-1.143,0.575-2.144,1.461-3.001,2.659c-1.144,1.581-2.073,3.569-2.787,5.964c-0.572,1.869-1.024,4.719-1.357,8.551
		c-0.333,3.897-0.595,9.03-0.785,15.398l-0.57,19.105c-5.082-0.095-9.663-0.143-13.747-0.143c-4.179,0-9.094,0.048-14.743,0.143
		c0.434-4.229,0.939-11.335,1.518-21.315c0.576-9.98,0.866-16.657,0.866-20.032c0-2.852-0.285-4.99-0.855-6.416
		s-1.367-2.566-2.389-3.422c-1.022-0.855-2.388-1.283-4.099-1.283c-1.854,0-3.47,0.547-4.848,1.64
		c-1.379,1.094-2.556,2.662-3.529,4.705c-0.975,2.044-1.664,4.86-2.067,8.448c-0.404,3.589-0.772,9.066-1.105,16.432
		c-0.333,7.367-0.547,14.448-0.642,21.244c-5.757-0.095-10.42-0.143-13.987-0.143C770.338,106.557,765.439,106.605,759.587,106.7z"
		/>
</g>
<g>
	<path fill="#424242" d="M172.423,180.838h-8.314v-24.557h6.434c2.027,0,3.609,0.272,4.746,0.817s2.004,1.295,2.602,2.25
		s0.896,2.06,0.896,3.313c0,2.414-1.248,4.143-3.744,5.186c1.793,0.34,3.22,1.078,4.28,2.215s1.591,2.496,1.591,4.078
		c0,1.254-0.322,2.373-0.967,3.357s-1.591,1.787-2.839,2.408S174.298,180.838,172.423,180.838z M170.648,159.41h-3.023v7.383h2.338
		c1.875,0,3.208-0.357,3.999-1.072s1.187-1.641,1.187-2.777C175.148,160.588,173.648,159.41,170.648,159.41z M170.912,169.922
		h-3.287v7.787h3.463c1.922,0,3.226-0.149,3.911-0.448s1.236-0.765,1.652-1.397s0.624-1.313,0.624-2.039
		c0-0.75-0.22-1.436-0.659-2.057s-1.063-1.084-1.872-1.389S172.658,169.922,170.912,169.922z"/>
	<path fill="#424242" d="M199.146,156.281h4.268l-9.07,11.566v12.99h-3.604v-12.99l-9.07-11.566h4.244l6.572,8.466L199.146,156.281z
		"/>
	<path fill="#424242" d="M216.228,180.838v-24.557h6.152c2.484,0,4.456,0.615,5.915,1.846s2.188,2.895,2.188,4.992
		c0,1.43-0.357,2.666-1.072,3.709s-1.74,1.822-3.076,2.338c0.785,0.516,1.553,1.219,2.303,2.109s1.805,2.443,3.164,4.658
		c0.855,1.395,1.541,2.443,2.057,3.146l1.301,1.758h-4.184l-1.071-1.618c-0.035-0.059-0.105-0.158-0.211-0.299l-0.685-0.968
		l-1.088-1.794l-1.176-1.917c-0.726-1.008-1.391-1.811-1.995-2.407c-0.604-0.597-1.15-1.026-1.637-1.29
		c-0.487-0.263-1.305-0.395-2.455-0.395h-0.915v10.688H216.228z M220.798,159.27h-1.055v7.752h1.336
		c1.781,0,3.003-0.152,3.665-0.457s1.178-0.765,1.547-1.38s0.554-1.315,0.554-2.101c0-0.773-0.205-1.474-0.615-2.101
		s-0.987-1.069-1.731-1.327S222.521,159.27,220.798,159.27z"/>
	<path fill="#424242" d="M237.867,156.281h13.922v3.129h-10.406v7.488h10.055v3.146h-10.055v7.629h10.74v3.129h-14.256V156.281z"/>
	<path fill="#424242" d="M253.775,156.246h20.514v3.129h-8.561v21.463h-3.533v-21.463h-8.42V156.246z"/>
	<path fill="#424242" d="M294.697,156.281h3.533v13.939c0,1.887-0.138,3.311-0.413,4.271s-0.615,1.761-1.02,2.399
		s-0.899,1.21-1.485,1.714c-1.945,1.676-4.488,2.514-7.629,2.514c-3.199,0-5.766-0.832-7.699-2.496
		c-0.586-0.516-1.081-1.093-1.485-1.731s-0.738-1.421-1.002-2.347s-0.396-2.379-0.396-4.359v-13.904h3.533v13.939
		c0,2.309,0.264,3.914,0.791,4.816s1.33,1.626,2.408,2.171s2.35,0.817,3.814,0.817c2.086,0,3.785-0.545,5.098-1.635
		c0.691-0.586,1.189-1.277,1.494-2.074s0.457-2.162,0.457-4.096V156.281z"/>
	<path fill="#424242" d="M303.205,180.838v-24.557h6.152c2.484,0,4.456,0.615,5.915,1.846s2.188,2.895,2.188,4.992
		c0,1.43-0.357,2.666-1.072,3.709s-1.74,1.822-3.076,2.338c0.785,0.516,1.553,1.219,2.303,2.109s1.805,2.443,3.164,4.658
		c0.855,1.395,1.541,2.443,2.057,3.146l1.301,1.758h-4.184l-1.071-1.618c-0.035-0.059-0.105-0.158-0.211-0.299l-0.685-0.968
		l-1.088-1.794l-1.176-1.917c-0.726-1.008-1.391-1.811-1.995-2.407c-0.604-0.597-1.15-1.026-1.637-1.29
		c-0.487-0.263-1.305-0.395-2.455-0.395h-0.915v10.688H303.205z M307.775,159.27h-1.055v7.752h1.336
		c1.781,0,3.003-0.152,3.665-0.457s1.178-0.765,1.547-1.38s0.554-1.315,0.554-2.101c0-0.773-0.205-1.474-0.615-2.101
		s-0.987-1.069-1.731-1.327S309.498,159.27,307.775,159.27z"/>
	<path fill="#424242" d="M344.355,156.281h3.34v24.557h-3.023l-16.418-18.912v18.912h-3.305v-24.557h2.848l16.559,19.073V156.281z"
		/>
	<path fill="#424242" d="M375.002,155.93c3.794,0,6.953,1.201,9.478,3.604c2.523,2.402,3.785,5.414,3.785,9.035
		s-1.273,6.618-3.82,8.991c-2.548,2.373-5.759,3.56-9.636,3.56c-3.7,0-6.783-1.187-9.249-3.56c-2.465-2.373-3.697-5.347-3.697-8.921
		c0-3.668,1.241-6.703,3.724-9.105C368.07,157.131,371.208,155.93,375.002,155.93z M375.143,159.27c-2.81,0-5.119,0.879-6.929,2.637
		c-1.809,1.758-2.713,4.002-2.713,6.732c0,2.648,0.907,4.852,2.722,6.609c1.815,1.758,4.087,2.637,6.814,2.637
		c2.739,0,5.025-0.896,6.858-2.689c1.832-1.793,2.748-4.025,2.748-6.697c0-2.602-0.916-4.79-2.748-6.565
		C380.063,160.157,377.812,159.27,375.143,159.27z"/>
	<path fill="#424242" d="M412.101,156.281h3.34v24.557h-3.023L396,161.926v18.912h-3.305v-24.557h2.848l16.559,19.073V156.281z"/>
	<path fill="#424242" d="M430.734,156.281h3.516v24.557h-3.516V156.281z"/>
	<path fill="#424242" d="M459.21,156.281h3.34v24.557h-3.023l-16.418-18.912v18.912h-3.305v-24.557h2.848l16.559,19.073V156.281z"/>
	<path fill="#424242" d="M465.714,156.246h20.514v3.129h-8.561v21.463h-3.533v-21.463h-8.42V156.246z"/>
	<path fill="#424242" d="M489.55,156.281h13.922v3.129h-10.406v7.488h10.055v3.146h-10.055v7.629h10.74v3.129H489.55V156.281z"/>
	<path fill="#424242" d="M507.55,156.281h3.516v21.357h11.057v3.199H507.55V156.281z"/>
	<path fill="#424242" d="M525.199,156.281h3.516v21.357h11.057v3.199h-14.572V156.281z"/>
	<path fill="#424242" d="M542.882,156.281h3.516v24.557h-3.516V156.281z"/>
	<path fill="#424242" d="M565.119,168.744h8.244v10.406c-3.023,1.313-6.023,1.969-9,1.969c-4.066,0-7.315-1.187-9.747-3.56
		s-3.647-5.3-3.647-8.78c0-3.668,1.26-6.721,3.779-9.158s5.678-3.656,9.475-3.656c1.383,0,2.695,0.149,3.938,0.448
		s2.813,0.847,4.711,1.644v3.586c-2.93-1.699-5.836-2.549-8.719-2.549c-2.684,0-4.945,0.914-6.785,2.742s-2.76,4.072-2.76,6.732
		c0,2.789,0.92,5.068,2.76,6.838s4.207,2.654,7.102,2.654c1.406,0,3.088-0.322,5.045-0.967l0.334-0.105v-5.115h-4.729V168.744z"/>
	<path fill="#424242" d="M578.496,156.281h13.922v3.129h-10.406v7.488h10.055v3.146h-10.055v7.629h10.74v3.129h-14.256V156.281z"/>
	<path fill="#424242" d="M616.007,156.281h3.34v24.557h-3.023l-16.418-18.912v18.912h-3.305v-24.557h2.848l16.559,19.073V156.281z"
		/>
	<path fill="#424242" d="M645.767,175.143v3.867c-2.578,1.406-5.555,2.109-8.93,2.109c-2.742,0-5.068-0.551-6.979-1.652
		s-3.422-2.619-4.535-4.553s-1.67-4.025-1.67-6.275c0-3.574,1.274-6.58,3.823-9.018s5.692-3.656,9.431-3.656
		c2.578,0,5.443,0.674,8.596,2.021v3.779c-2.871-1.641-5.678-2.461-8.42-2.461c-2.813,0-5.147,0.888-7.005,2.663
		s-2.786,3.999-2.786,6.671c0,2.695,0.914,4.91,2.742,6.645s4.166,2.602,7.014,2.602
		C640.025,177.885,642.931,176.971,645.767,175.143z"/>
	<path fill="#424242" d="M650.091,156.281h13.922v3.129h-10.406v7.488h10.055v3.146h-10.055v7.629h10.74v3.129h-14.256V156.281z"/>
	<path fill="#424242" d="M678.128,156.281h3.516v24.557h-3.516V156.281z"/>
	<path fill="#424242" d="M685.001,156.246h20.514v3.129h-8.561v21.463h-3.533v-21.463h-8.42V156.246z"/>
	<path fill="#424242" d="M740.003,175.143v3.867c-2.578,1.406-5.555,2.109-8.93,2.109c-2.742,0-5.068-0.551-6.979-1.652
		s-3.422-2.619-4.535-4.553s-1.67-4.025-1.67-6.275c0-3.574,1.274-6.58,3.823-9.018s5.692-3.656,9.431-3.656
		c2.578,0,5.443,0.674,8.596,2.021v3.779c-2.871-1.641-5.678-2.461-8.42-2.461c-2.813,0-5.147,0.888-7.005,2.663
		s-2.786,3.999-2.786,6.671c0,2.695,0.914,4.91,2.742,6.645s4.166,2.602,7.014,2.602
		C734.261,177.885,737.167,176.971,740.003,175.143z"/>
	<path fill="#424242" d="M756.377,155.93c3.794,0,6.953,1.201,9.478,3.604c2.523,2.402,3.785,5.414,3.785,9.035
		s-1.273,6.618-3.82,8.991c-2.548,2.373-5.759,3.56-9.636,3.56c-3.7,0-6.783-1.187-9.249-3.56c-2.465-2.373-3.697-5.347-3.697-8.921
		c0-3.668,1.241-6.703,3.724-9.105C749.445,157.131,752.583,155.93,756.377,155.93z M756.518,159.27
		c-2.81,0-5.119,0.879-6.929,2.637c-1.809,1.758-2.713,4.002-2.713,6.732c0,2.648,0.907,4.852,2.722,6.609
		c1.815,1.758,4.087,2.637,6.814,2.637c2.739,0,5.025-0.896,6.858-2.689c1.832-1.793,2.748-4.025,2.748-6.697
		c0-2.602-0.916-4.79-2.748-6.565C761.438,160.157,759.187,159.27,756.518,159.27z"/>
	<path fill="#424242" d="M793.494,156.281h3.287v24.557h-3.533V161.73l-7.55,9.492h-0.65l-7.638-9.492v19.107h-3.516v-24.557h3.328
		l8.16,10.085L793.494,156.281z"/>
	<path fill="#424242" d="M801.878,180.838v-24.592h7.787c2.344,0,4.213,0.633,5.607,1.898s2.092,2.965,2.092,5.098
		c0,1.43-0.357,2.695-1.072,3.797s-1.693,1.901-2.936,2.399s-3.023,0.747-5.344,0.747h-2.602v10.652H801.878z M809.05,159.375
		h-3.639v7.682h3.85c1.43,0,2.531-0.337,3.305-1.011s1.16-1.638,1.16-2.892C813.726,160.635,812.167,159.375,809.05,159.375z"/>
	<path fill="#424242" d="M825.381,156.141h2.471l11.011,24.697h-3.599l-3.272-7.277h-10.477l-3.068,7.277h-3.613L825.381,156.141z
		 M830.546,170.432l-3.962-8.895l-3.674,8.895H830.546z"/>
	<path fill="#424242" d="M861.064,156.281h3.34v24.557h-3.023l-16.418-18.912v18.912h-3.305v-24.557h2.848l16.559,19.073V156.281z"
		/>
	<path fill="#424242" d="M884.429,156.281h4.268l-9.07,11.566v12.99h-3.604v-12.99l-9.07-11.566h4.244l6.571,8.466L884.429,156.281z
		"/>
</g>
<path fill-rule="evenodd" clip-rule="evenodd" fill="#4D8AC1" stroke="#5295DD" stroke-width="0.7197" stroke-miterlimit="22.9256" d="
	M29.997,8.767c15.525,0,28.112,13.133,28.112,29.333c0,16.2-12.587,29.334-28.112,29.334S1.885,54.301,1.885,38.101
	C1.885,21.9,14.471,8.767,29.997,8.767L29.997,8.767z M0.36,83.017l0.047,97.821l86.369-0.013c0,0-9.314-19.37-5.771-32.306
	c3.68-10.891,31.739,3.731,39.846-4.898c4.427-4.709,3.944-20.05,4.52-23.192c0.575-3.142,7.332-5.389,6.432-7.188
	c-0.898-1.798-12.976-5.797-14.838-6.856c-1.863-1.059,14.525-2.91,16.295-5.635c1.771-2.726-5.576-11.781-5.576-11.781
	s9.802-3.483,12.529-7.253c2.728-3.77-13.945-23.747-15.537-26.982c-1.593-3.233,2.279-27.271-4.172-40.8
	c-6.45-13.529-6.459-13.542-6.459-13.542c-12.106,0-24.212,0-36.319,0.001c-1.782,0-1.497-0.351-2.226,1.272
	c-0.6,1.334-1.198,2.668-1.796,4.003c-0.791,1.747-0.722,2.998,0.354,4.745c2.549,4.4,4.512,9.211,5.769,14.318
	c1.073,3.208,1.173,3.748,4.165,3.84c2.759,0.004,5.52,0.01,8.28,0.015c0.06,6.56,0.117,13.121,0.177,19.68
	c-3.139,0-6.276,0-9.415,0c-1.677-0.111-2.481,0.22-3.039,2.527c-1.173,5.044-3.03,9.81-5.461,14.183
	c-0.683,1.508-0.128,2.63,1.025,3.922c2.319,2.383,4.639,4.765,6.958,7.146c-4.457,4.342-9.658,9.545-14.115,13.886
	c-2.281-2.128-4.563-4.258-6.844-6.386c-0.816-0.66-1.407-1.529-3.003-0.491c-4.732,3.306-9.972,5.458-15.64,6.981
	c-1.136,0.146-1.924,1.144-1.924,2.382c-0.053,5.025-0.117,9.426-0.117,9.426c-7.181,0.025-14.362,0.051-21.544,0.074
	c0.001-3.453,0.001-6.908,0.002-10.362c0.007-0.687-0.208-1.048-0.973-1.226c-6.064-1.474-11.72-4.071-16.749-7.565
	C0.608,82.18,0.362,82.388,0.36,83.017L0.36,83.017z M29.997,23.896c7.518,0,13.614,6.36,13.614,14.205
	c0,7.845-6.096,14.206-13.614,14.206c-7.519,0-13.614-6.36-13.614-14.206C16.383,30.256,22.478,23.896,29.997,23.896z"/>
</svg>
